<?xml version="1.0" encoding="UTF-8" standalone="no"?>
<!DOCTYPE svg PUBLIC "-//W3C//DTD SVG 1.1//EN"
 "http://www.w3.org/Graphics/SVG/1.1/DTD/svg11.dtd">
<!-- Generated by graphviz version 2.40.1 (20161225.0304)
 -->
<!-- Title: G Pages: 1 -->
<svg width="986pt" height="315pt"
 viewBox="0.00 0.00 986.20 315.30" xmlns="http://www.w3.org/2000/svg" xmlns:xlink="http://www.w3.org/1999/xlink">
<g id="graph0" class="graph" transform="scale(1 1) rotate(0) translate(21.6 293.6986)">
<title>G</title>
<polygon fill="#111111" stroke="transparent" points="-21.6,21.6 -21.6,-293.6986 964.5971,-293.6986 964.5971,21.6 -21.6,21.6"/>
<!-- ../common/Signal.js -->
<g id="node1" class="node">
<title>../common/Signal.js</title>
<path fill="none" stroke="#cfffac" d="M875.8693,-192.1482C875.8693,-192.1482 753.6845,-192.1482 753.6845,-192.1482 749.6515,-192.1482 745.6186,-188.1152 745.6186,-184.0823 745.6186,-184.0823 745.6186,-176.0164 745.6186,-176.0164 745.6186,-171.9834 749.6515,-167.9505 753.6845,-167.9505 753.6845,-167.9505 875.8693,-167.9505 875.8693,-167.9505 879.9022,-167.9505 883.9351,-171.9834 883.9351,-176.0164 883.9351,-176.0164 883.9351,-184.0823 883.9351,-184.0823 883.9351,-188.1152 879.9022,-192.1482 875.8693,-192.1482"/>
<text text-anchor="middle" x="814.7769" y="-176.8986" font-family="Arial" font-size="14.00" fill="#cfffac">../common/Signal.js</text>
</g>
<!-- ../common/SignalAll.js -->
<g id="node2" class="node">
<title>../common/SignalAll.js</title>
<path fill="none" stroke="#c6c5fe" d="M595.2669,-192.1482C595.2669,-192.1482 457.9646,-192.1482 457.9646,-192.1482 453.9316,-192.1482 449.8987,-188.1152 449.8987,-184.0823 449.8987,-184.0823 449.8987,-176.0164 449.8987,-176.0164 449.8987,-171.9834 453.9316,-167.9505 457.9646,-167.9505 457.9646,-167.9505 595.2669,-167.9505 595.2669,-167.9505 599.2998,-167.9505 603.3328,-171.9834 603.3328,-176.0164 603.3328,-176.0164 603.3328,-184.0823 603.3328,-184.0823 603.3328,-188.1152 599.2998,-192.1482 595.2669,-192.1482"/>
<text text-anchor="middle" x="526.6157" y="-176.8986" font-family="Arial" font-size="14.00" fill="#c6c5fe">../common/SignalAll.js</text>
</g>
<!-- ../common/SignalAll.js&#45;&gt;../common/Signal.js -->
<g id="edge1" class="edge">
<title>../common/SignalAll.js&#45;&gt;../common/Signal.js</title>
<path fill="none" stroke="#757575" d="M603.4591,-180.0493C644.1896,-180.0493 694.1613,-180.0493 735.2824,-180.0493"/>
<polygon fill="#757575" stroke="#757575" points="735.5353,-183.5494 745.5353,-180.0493 735.5352,-176.5494 735.5353,-183.5494"/>
</g>
<!-- ../common/sockets&#45;encoder&#45;decoder.js -->
<g id="node3" class="node">
<title>../common/sockets&#45;encoder&#45;decoder.js</title>
<path fill="none" stroke="#cfffac" d="M935.1518,-66.1482C935.1518,-66.1482 694.4019,-66.1482 694.4019,-66.1482 690.369,-66.1482 686.336,-62.1152 686.336,-58.0823 686.336,-58.0823 686.336,-50.0164 686.336,-50.0164 686.336,-45.9834 690.369,-41.9505 694.4019,-41.9505 694.4019,-41.9505 935.1518,-41.9505 935.1518,-41.9505 939.1847,-41.9505 943.2177,-45.9834 943.2177,-50.0164 943.2177,-50.0164 943.2177,-58.0823 943.2177,-58.0823 943.2177,-62.1152 939.1847,-66.1482 935.1518,-66.1482"/>
<text text-anchor="middle" x="814.7769" y="-50.8986" font-family="Arial" font-size="14.00" fill="#cfffac">../common/sockets&#45;encoder&#45;decoder.js</text>
</g>
<!-- ../common/stateManagerConstants.js -->
<g id="node4" class="node">
<title>../common/stateManagerConstants.js</title>
<path fill="none" stroke="#cfffac" d="M642.4317,-24.1482C642.4317,-24.1482 410.7997,-24.1482 410.7997,-24.1482 406.7668,-24.1482 402.7339,-20.1152 402.7339,-16.0823 402.7339,-16.0823 402.7339,-8.0164 402.7339,-8.0164 402.7339,-3.9834 406.7668,.0495 410.7997,.0495 410.7997,.0495 642.4317,.0495 642.4317,.0495 646.4646,.0495 650.4976,-3.9834 650.4976,-8.0164 650.4976,-8.0164 650.4976,-16.0823 650.4976,-16.0823 650.4976,-20.1152 646.4646,-24.1482 642.4317,-24.1482"/>
<text text-anchor="middle" x="526.6157" y="-8.8986" font-family="Arial" font-size="14.00" fill="#cfffac">../common/stateManagerConstants.js</text>
</g>
<!-- Client.js -->
<g id="node5" class="node">
<title>Client.js</title>
<path fill="none" stroke="#cfffac" d="M325.8197,-150.1482C325.8197,-150.1482 276.3649,-150.1482 276.3649,-150.1482 272.3319,-150.1482 268.299,-146.1152 268.299,-142.0823 268.299,-142.0823 268.299,-134.0164 268.299,-134.0164 268.299,-129.9834 272.3319,-125.9505 276.3649,-125.9505 276.3649,-125.9505 325.8197,-125.9505 325.8197,-125.9505 329.8526,-125.9505 333.8856,-129.9834 333.8856,-134.0164 333.8856,-134.0164 333.8856,-142.0823 333.8856,-142.0823 333.8856,-146.1152 329.8526,-150.1482 325.8197,-150.1482"/>
<text text-anchor="middle" x="301.0923" y="-134.8986" font-family="Arial" font-size="14.00" fill="#cfffac">Client.js</text>
</g>
<!-- Db.js -->
<g id="node6" class="node">
<title>Db.js</title>
<path fill="none" stroke="#cfffac" d="M320.0264,-108.1482C320.0264,-108.1482 282.1582,-108.1482 282.1582,-108.1482 278.1252,-108.1482 274.0923,-104.1152 274.0923,-100.0823 274.0923,-100.0823 274.0923,-92.0164 274.0923,-92.0164 274.0923,-87.9834 278.1252,-83.9505 282.1582,-83.9505 282.1582,-83.9505 320.0264,-83.9505 320.0264,-83.9505 324.0593,-83.9505 328.0923,-87.9834 328.0923,-92.0164 328.0923,-92.0164 328.0923,-100.0823 328.0923,-100.0823 328.0923,-104.1152 324.0593,-108.1482 320.0264,-108.1482"/>
<text text-anchor="middle" x="301.0923" y="-92.8986" font-family="Arial" font-size="14.00" fill="#cfffac">Db.js</text>
</g>
<!-- Experience.js -->
<g id="node7" class="node">
<title>Experience.js</title>
<path fill="none" stroke="#cfffac" d="M191.4644,-108.1482C191.4644,-108.1482 107.5141,-108.1482 107.5141,-108.1482 103.4812,-108.1482 99.4482,-104.1152 99.4482,-100.0823 99.4482,-100.0823 99.4482,-92.0164 99.4482,-92.0164 99.4482,-87.9834 103.4812,-83.9505 107.5141,-83.9505 107.5141,-83.9505 191.4644,-83.9505 191.4644,-83.9505 195.4973,-83.9505 199.5303,-87.9834 199.5303,-92.0164 199.5303,-92.0164 199.5303,-100.0823 199.5303,-100.0823 199.5303,-104.1152 195.4973,-108.1482 191.4644,-108.1482"/>
<text text-anchor="middle" x="149.4893" y="-92.8986" font-family="Arial" font-size="14.00" fill="#cfffac">Experience.js</text>
</g>
<!-- Server.js -->
<g id="node8" class="node">
<title>Server.js</title>
<path fill="none" stroke="#c6c5fe" d="M176.8868,-150.1482C176.8868,-150.1482 122.0917,-150.1482 122.0917,-150.1482 118.0588,-150.1482 114.0258,-146.1152 114.0258,-142.0823 114.0258,-142.0823 114.0258,-134.0164 114.0258,-134.0164 114.0258,-129.9834 118.0588,-125.9505 122.0917,-125.9505 122.0917,-125.9505 176.8868,-125.9505 176.8868,-125.9505 180.9198,-125.9505 184.9527,-129.9834 184.9527,-134.0164 184.9527,-134.0164 184.9527,-142.0823 184.9527,-142.0823 184.9527,-146.1152 180.9198,-150.1482 176.8868,-150.1482"/>
<text text-anchor="middle" x="149.4893" y="-134.8986" font-family="Arial" font-size="14.00" fill="#c6c5fe">Server.js</text>
</g>
<!-- Server.js&#45;&gt;Client.js -->
<g id="edge2" class="edge">
<title>Server.js&#45;&gt;Client.js</title>
<path fill="none" stroke="#757575" d="M185.0334,-138.0493C206.8152,-138.0493 234.8446,-138.0493 257.9008,-138.0493"/>
<polygon fill="#757575" stroke="#757575" points="258.104,-141.5494 268.104,-138.0493 258.1039,-134.5494 258.104,-141.5494"/>
</g>
<!-- Server.js&#45;&gt;Db.js -->
<g id="edge3" class="edge">
<title>Server.js&#45;&gt;Db.js</title>
<path fill="none" stroke="#757575" d="M185.0334,-128.2022C208.7727,-121.6255 239.9331,-112.9928 263.9884,-106.3286"/>
<polygon fill="#757575" stroke="#757575" points="265.1179,-109.6475 273.8205,-103.6047 263.249,-102.9016 265.1179,-109.6475"/>
</g>
<!-- Service.js -->
<g id="node9" class="node">
<title>Service.js</title>
<path fill="none" stroke="#c6c5fe" d="M331.2097,-272.1482C331.2097,-272.1482 270.9749,-272.1482 270.9749,-272.1482 266.942,-272.1482 262.909,-268.1152 262.909,-264.0823 262.909,-264.0823 262.909,-256.0164 262.909,-256.0164 262.909,-251.9834 266.942,-247.9505 270.9749,-247.9505 270.9749,-247.9505 331.2097,-247.9505 331.2097,-247.9505 335.2426,-247.9505 339.2756,-251.9834 339.2756,-256.0164 339.2756,-256.0164 339.2756,-264.0823 339.2756,-264.0823 339.2756,-268.1152 335.2426,-272.1482 331.2097,-272.1482"/>
<text text-anchor="middle" x="301.0923" y="-256.8986" font-family="Arial" font-size="14.00" fill="#c6c5fe">Service.js</text>
</g>
<!-- Server.js&#45;&gt;Service.js -->
<g id="edge4" class="edge">
<title>Server.js&#45;&gt;Service.js</title>
<path fill="none" stroke="#757575" d="M157.6077,-150.3178C171.4267,-170.3535 201.364,-210.2449 235.5098,-234.0493 241.0453,-237.9083 247.2356,-241.3106 253.5427,-244.2739"/>
<polygon fill="#757575" stroke="#757575" points="252.2379,-247.523 262.8039,-248.3035 255.0307,-241.1043 252.2379,-247.523"/>
</g>
<!-- ServiceManager.js -->
<g id="node10" class="node">
<title>ServiceManager.js</title>
<path fill="none" stroke="#c6c5fe" d="M358.6915,-192.1482C358.6915,-192.1482 243.493,-192.1482 243.493,-192.1482 239.4601,-192.1482 235.4271,-188.1152 235.4271,-184.0823 235.4271,-184.0823 235.4271,-176.0164 235.4271,-176.0164 235.4271,-171.9834 239.4601,-167.9505 243.493,-167.9505 243.493,-167.9505 358.6915,-167.9505 358.6915,-167.9505 362.7245,-167.9505 366.7574,-171.9834 366.7574,-176.0164 366.7574,-176.0164 366.7574,-184.0823 366.7574,-184.0823 366.7574,-188.1152 362.7245,-192.1482 358.6915,-192.1482"/>
<text text-anchor="middle" x="301.0923" y="-176.8986" font-family="Arial" font-size="14.00" fill="#c6c5fe">ServiceManager.js</text>
</g>
<!-- Server.js&#45;&gt;ServiceManager.js -->
<g id="edge5" class="edge">
<title>Server.js&#45;&gt;ServiceManager.js</title>
<path fill="none" stroke="#757575" d="M185.0334,-147.8965C203.695,-153.0664 226.9424,-159.5069 247.7193,-165.2629"/>
<polygon fill="#757575" stroke="#757575" points="246.8052,-168.6414 257.3767,-167.9384 248.6742,-161.8955 246.8052,-168.6414"/>
</g>
<!-- Sockets.js -->
<g id="node11" class="node">
<title>Sockets.js</title>
<path fill="none" stroke="#c6c5fe" d="M332.8265,-66.1482C332.8265,-66.1482 269.3581,-66.1482 269.3581,-66.1482 265.3252,-66.1482 261.2922,-62.1152 261.2922,-58.0823 261.2922,-58.0823 261.2922,-50.0164 261.2922,-50.0164 261.2922,-45.9834 265.3252,-41.9505 269.3581,-41.9505 269.3581,-41.9505 332.8265,-41.9505 332.8265,-41.9505 336.8594,-41.9505 340.8923,-45.9834 340.8923,-50.0164 340.8923,-50.0164 340.8923,-58.0823 340.8923,-58.0823 340.8923,-62.1152 336.8594,-66.1482 332.8265,-66.1482"/>
<text text-anchor="middle" x="301.0923" y="-50.8986" font-family="Arial" font-size="14.00" fill="#c6c5fe">Sockets.js</text>
</g>
<!-- Server.js&#45;&gt;Sockets.js -->
<g id="edge6" class="edge">
<title>Server.js&#45;&gt;Sockets.js</title>
<path fill="none" stroke="#757575" d="M184.2614,-125.9484C189.5966,-123.3969 194.8669,-120.4333 199.5098,-117.0493 219.378,-102.5684 215.0266,-88.6465 235.5098,-75.0493 240.4231,-71.7877 245.8779,-69.0034 251.4832,-66.6335"/>
<polygon fill="#757575" stroke="#757575" points="252.8822,-69.8462 260.9893,-63.0252 250.3981,-63.3017 252.8822,-69.8462"/>
</g>
<!-- StateManager.js -->
<g id="node12" class="node">
<title>StateManager.js</title>
<path fill="none" stroke="#c6c5fe" d="M351.6984,-24.1482C351.6984,-24.1482 250.4862,-24.1482 250.4862,-24.1482 246.4532,-24.1482 242.4203,-20.1152 242.4203,-16.0823 242.4203,-16.0823 242.4203,-8.0164 242.4203,-8.0164 242.4203,-3.9834 246.4532,.0495 250.4862,.0495 250.4862,.0495 351.6984,.0495 351.6984,.0495 355.7313,.0495 359.7643,-3.9834 359.7643,-8.0164 359.7643,-8.0164 359.7643,-16.0823 359.7643,-16.0823 359.7643,-20.1152 355.7313,-24.1482 351.6984,-24.1482"/>
<text text-anchor="middle" x="301.0923" y="-8.8986" font-family="Arial" font-size="14.00" fill="#c6c5fe">StateManager.js</text>
</g>
<!-- Server.js&#45;&gt;StateManager.js -->
<g id="edge7" class="edge">
<title>Server.js&#45;&gt;StateManager.js</title>
<path fill="none" stroke="#757575" d="M184.7321,-127.3664C190.1307,-124.6239 195.2986,-121.2294 199.5098,-117.0493 228.3369,-88.435 205.4575,-60.3741 235.5098,-33.0493 236.8477,-31.8329 238.2564,-30.6868 239.7229,-29.6072"/>
<polygon fill="#757575" stroke="#757575" points="241.9708,-32.3343 248.6633,-24.1208 238.3095,-26.368 241.9708,-32.3343"/>
</g>
<!-- utils/logger.js -->
<g id="node13" class="node">
<title>utils/logger.js</title>
<path fill="none" stroke="#cfffac" d="M566.9805,-234.1482C566.9805,-234.1482 486.2509,-234.1482 486.2509,-234.1482 482.218,-234.1482 478.185,-230.1152 478.185,-226.0823 478.185,-226.0823 478.185,-218.0164 478.185,-218.0164 478.185,-213.9834 482.218,-209.9505 486.2509,-209.9505 486.2509,-209.9505 566.9805,-209.9505 566.9805,-209.9505 571.0135,-209.9505 575.0464,-213.9834 575.0464,-218.0164 575.0464,-218.0164 575.0464,-226.0823 575.0464,-226.0823 575.0464,-230.1152 571.0135,-234.1482 566.9805,-234.1482"/>
<text text-anchor="middle" x="526.6157" y="-218.8986" font-family="Arial" font-size="14.00" fill="#cfffac">utils/logger.js</text>
</g>
<!-- Server.js&#45;&gt;utils/logger.js -->
<g id="edge8" class="edge">
<title>Server.js&#45;&gt;utils/logger.js</title>
<path fill="none" stroke="#757575" d="M161.2733,-150.1398C176.7341,-165.1176 205.4501,-190.006 235.5098,-201.0493 312.1689,-229.2123 407.6906,-230.237 467.9367,-227.1321"/>
<polygon fill="#757575" stroke="#757575" points="468.2437,-230.6203 478.028,-226.5562 467.8448,-223.6317 468.2437,-230.6203"/>
</g>
<!-- Service.js&#45;&gt;../common/Signal.js -->
<g id="edge9" class="edge">
<title>Service.js&#45;&gt;../common/Signal.js</title>
<path fill="none" stroke="#757575" d="M339.3447,-262.1092C404.1694,-264.7325 539.4036,-266.446 650.5566,-243.0493 697.6074,-233.1456 748.9051,-211.5914 781.4258,-196.4651"/>
<polygon fill="#757575" stroke="#757575" points="782.9348,-199.6232 790.4854,-192.1909 779.9479,-193.2924 782.9348,-199.6232"/>
</g>
<!-- Service.js&#45;&gt;../common/SignalAll.js -->
<g id="edge10" class="edge">
<title>Service.js&#45;&gt;../common/SignalAll.js</title>
<path fill="none" stroke="#757575" d="M317.7752,-247.8146C337.176,-234.2109 370.6459,-212.6326 402.6748,-201.0493 414.4156,-196.8033 427.0982,-193.4062 439.7155,-190.6908"/>
<polygon fill="#757575" stroke="#757575" points="440.6908,-194.0647 449.8011,-188.656 439.3064,-187.2029 440.6908,-194.0647"/>
</g>
<!-- Service.js&#45;&gt;utils/logger.js -->
<g id="edge11" class="edge">
<title>Service.js&#45;&gt;utils/logger.js</title>
<path fill="none" stroke="#757575" d="M339.3493,-253.6031C374.5682,-247.6689 427.3383,-238.7773 467.894,-231.9437"/>
<polygon fill="#757575" stroke="#757575" points="468.644,-235.3668 477.9235,-230.2538 467.4809,-228.4641 468.644,-235.3668"/>
</g>
<!-- ServiceManager.js&#45;&gt;../common/Signal.js -->
<g id="edge12" class="edge">
<title>ServiceManager.js&#45;&gt;../common/Signal.js</title>
<path fill="none" stroke="#757575" d="M349.3494,-167.9776C366.1164,-164.3434 385.1178,-160.8451 402.6748,-159.0493 512.2727,-147.8393 540.6096,-152.048 650.5566,-159.0493 678.2809,-160.8148 708.4791,-164.2405 735.3312,-167.8213"/>
<polygon fill="#757575" stroke="#757575" points="735.0659,-171.3173 745.4466,-169.1981 736.01,-164.3813 735.0659,-171.3173"/>
</g>
<!-- ServiceManager.js&#45;&gt;../common/SignalAll.js -->
<g id="edge13" class="edge">
<title>ServiceManager.js&#45;&gt;../common/SignalAll.js</title>
<path fill="none" stroke="#757575" d="M366.9293,-180.0493C389.5677,-180.0493 415.2773,-180.0493 439.3508,-180.0493"/>
<polygon fill="#757575" stroke="#757575" points="439.5541,-183.5494 449.5541,-180.0493 439.5541,-176.5494 439.5541,-183.5494"/>
</g>
<!-- ServiceManager.js&#45;&gt;utils/logger.js -->
<g id="edge14" class="edge">
<title>ServiceManager.js&#45;&gt;utils/logger.js</title>
<path fill="none" stroke="#757575" d="M357.7046,-192.1291C372.3332,-195.1471 388.0734,-198.304 402.6748,-201.0493 423.964,-205.0521 447.3767,-209.1079 468.0657,-212.5738"/>
<polygon fill="#757575" stroke="#757575" points="467.543,-216.0349 477.9821,-214.2251 468.6929,-209.1299 467.543,-216.0349"/>
</g>
<!-- Socket.js -->
<g id="node14" class="node">
<title>Socket.js</title>
<path fill="none" stroke="#c6c5fe" d="M554.8499,-66.1482C554.8499,-66.1482 498.3815,-66.1482 498.3815,-66.1482 494.3486,-66.1482 490.3156,-62.1152 490.3156,-58.0823 490.3156,-58.0823 490.3156,-50.0164 490.3156,-50.0164 490.3156,-45.9834 494.3486,-41.9505 498.3815,-41.9505 498.3815,-41.9505 554.8499,-41.9505 554.8499,-41.9505 558.8829,-41.9505 562.9158,-45.9834 562.9158,-50.0164 562.9158,-50.0164 562.9158,-58.0823 562.9158,-58.0823 562.9158,-62.1152 558.8829,-66.1482 554.8499,-66.1482"/>
<text text-anchor="middle" x="526.6157" y="-50.8986" font-family="Arial" font-size="14.00" fill="#c6c5fe">Socket.js</text>
</g>
<!-- Sockets.js&#45;&gt;Socket.js -->
<g id="edge16" class="edge">
<title>Sockets.js&#45;&gt;Socket.js</title>
<path fill="none" stroke="#757575" d="M341.1515,-54.0493C380.1247,-54.0493 439.297,-54.0493 480.2789,-54.0493"/>
<polygon fill="#757575" stroke="#757575" points="480.2827,-57.5494 490.2827,-54.0493 480.2826,-50.5494 480.2827,-57.5494"/>
</g>
<!-- StateManager.js&#45;&gt;../common/stateManagerConstants.js -->
<g id="edge17" class="edge">
<title>StateManager.js&#45;&gt;../common/stateManagerConstants.js</title>
<path fill="none" stroke="#757575" d="M359.7572,-12.0493C370.0533,-12.0493 381.1379,-12.0493 392.5237,-12.0493"/>
<polygon fill="#757575" stroke="#757575" points="392.5947,-15.5494 402.5947,-12.0493 392.5947,-8.5494 392.5947,-15.5494"/>
</g>
<!-- Socket.js&#45;&gt;../common/sockets&#45;encoder&#45;decoder.js -->
<g id="edge15" class="edge">
<title>Socket.js&#45;&gt;../common/sockets&#45;encoder&#45;decoder.js</title>
<path fill="none" stroke="#757575" d="M563.1115,-54.0493C592.064,-54.0493 634.482,-54.0493 676.2735,-54.0493"/>
<polygon fill="#757575" stroke="#757575" points="676.3053,-57.5494 686.3053,-54.0493 676.3052,-50.5494 676.3053,-57.5494"/>
</g>
<!-- index.js -->
<g id="node15" class="node">
<title>index.js</title>
<path fill="none" stroke="#c6c5fe" d="M55.639,-129.1482C55.639,-129.1482 7.8298,-129.1482 7.8298,-129.1482 3.7968,-129.1482 -.2361,-125.1152 -.2361,-121.0823 -.2361,-121.0823 -.2361,-113.0164 -.2361,-113.0164 -.2361,-108.9834 3.7968,-104.9505 7.8298,-104.9505 7.8298,-104.9505 55.639,-104.9505 55.639,-104.9505 59.6719,-104.9505 63.7049,-108.9834 63.7049,-113.0164 63.7049,-113.0164 63.7049,-121.0823 63.7049,-121.0823 63.7049,-125.1152 59.6719,-129.1482 55.639,-129.1482"/>
<text text-anchor="middle" x="31.7344" y="-113.8986" font-family="Arial" font-size="14.00" fill="#c6c5fe">index.js</text>
</g>
<!-- index.js&#45;&gt;Experience.js -->
<g id="edge18" class="edge">
<title>index.js&#45;&gt;Experience.js</title>
<path fill="none" stroke="#757575" d="M63.6005,-111.3664C71.6176,-109.9367 80.4877,-108.3548 89.395,-106.7663"/>
<polygon fill="#757575" stroke="#757575" points="90.1937,-110.1792 99.4239,-104.9778 88.9647,-103.2879 90.1937,-110.1792"/>
</g>
<!-- index.js&#45;&gt;Server.js -->
<g id="edge19" class="edge">
<title>index.js&#45;&gt;Server.js</title>
<path fill="none" stroke="#757575" d="M63.6005,-122.7322C75.9757,-124.9392 90.3835,-127.5086 103.823,-129.9054"/>
<polygon fill="#757575" stroke="#757575" points="103.4027,-133.3855 113.8618,-131.6956 104.6317,-126.4943 103.4027,-133.3855"/>
</g>
</g>
</svg>
