<?xml version="1.0" encoding="UTF-8" standalone="no"?>
<!DOCTYPE svg PUBLIC "-//W3C//DTD SVG 1.1//EN"
 "http://www.w3.org/Graphics/SVG/1.1/DTD/svg11.dtd">
<!-- Generated by graphviz version 2.40.1 (20161225.0304)
 -->
<!-- Title: G Pages: 1 -->
<svg width="876pt" height="207pt"
 viewBox="0.00 0.00 876.47 207.28" xmlns="http://www.w3.org/2000/svg" xmlns:xlink="http://www.w3.org/1999/xlink">
<g id="graph0" class="graph" transform="scale(1 1) rotate(0) translate(21.6 185.6783)">
<title>G</title>
<polygon fill="#111111" stroke="transparent" points="-21.6,21.6 -21.6,-185.6783 854.8734,-185.6783 854.8734,21.6 -21.6,21.6"/>
<!-- ../common/Signal.js -->
<g id="node1" class="node">
<title>../common/Signal.js</title>
<path fill="none" stroke="#cfffac" d="M825.2867,-147.1482C825.2867,-147.1482 703.1019,-147.1482 703.1019,-147.1482 699.069,-147.1482 695.036,-143.1152 695.036,-139.0823 695.036,-139.0823 695.036,-131.0164 695.036,-131.0164 695.036,-126.9834 699.069,-122.9505 703.1019,-122.9505 703.1019,-122.9505 825.2867,-122.9505 825.2867,-122.9505 829.3197,-122.9505 833.3526,-126.9834 833.3526,-131.0164 833.3526,-131.0164 833.3526,-139.0823 833.3526,-139.0823 833.3526,-143.1152 829.3197,-147.1482 825.2867,-147.1482"/>
<text text-anchor="middle" x="764.1943" y="-131.8986" font-family="Arial" font-size="14.00" fill="#cfffac">../common/Signal.js</text>
</g>
<!-- ../common/SignalAll.js -->
<g id="node2" class="node">
<title>../common/SignalAll.js</title>
<path fill="none" stroke="#c6c5fe" d="M599.5462,-147.1482C599.5462,-147.1482 462.2439,-147.1482 462.2439,-147.1482 458.2109,-147.1482 454.178,-143.1152 454.178,-139.0823 454.178,-139.0823 454.178,-131.0164 454.178,-131.0164 454.178,-126.9834 458.2109,-122.9505 462.2439,-122.9505 462.2439,-122.9505 599.5462,-122.9505 599.5462,-122.9505 603.5791,-122.9505 607.6121,-126.9834 607.6121,-131.0164 607.6121,-131.0164 607.6121,-139.0823 607.6121,-139.0823 607.6121,-143.1152 603.5791,-147.1482 599.5462,-147.1482"/>
<text text-anchor="middle" x="530.895" y="-131.8986" font-family="Arial" font-size="14.00" fill="#c6c5fe">../common/SignalAll.js</text>
</g>
<!-- ../common/SignalAll.js&#45;&gt;../common/Signal.js -->
<g id="edge1" class="edge">
<title>../common/SignalAll.js&#45;&gt;../common/Signal.js</title>
<path fill="none" stroke="#757575" d="M607.9325,-135.0493C632.6628,-135.0493 660.0885,-135.0493 684.9725,-135.0493"/>
<polygon fill="#757575" stroke="#757575" points="685.0995,-138.5494 695.0995,-135.0493 685.0994,-131.5494 685.0995,-138.5494"/>
</g>
<!-- ../common/sockets&#45;encoder&#45;decoder.js -->
<g id="node3" class="node">
<title>../common/sockets&#45;encoder&#45;decoder.js</title>
<path fill="none" stroke="#cfffac" d="M651.2699,-66.1482C651.2699,-66.1482 410.5201,-66.1482 410.5201,-66.1482 406.4872,-66.1482 402.4542,-62.1152 402.4542,-58.0823 402.4542,-58.0823 402.4542,-50.0164 402.4542,-50.0164 402.4542,-45.9834 406.4872,-41.9505 410.5201,-41.9505 410.5201,-41.9505 651.2699,-41.9505 651.2699,-41.9505 655.3029,-41.9505 659.3358,-45.9834 659.3358,-50.0164 659.3358,-50.0164 659.3358,-58.0823 659.3358,-58.0823 659.3358,-62.1152 655.3029,-66.1482 651.2699,-66.1482"/>
<text text-anchor="middle" x="530.895" y="-50.8986" font-family="Arial" font-size="14.00" fill="#cfffac">../common/sockets&#45;encoder&#45;decoder.js</text>
</g>
<!-- ../common/stateManagerConstants.js -->
<g id="node4" class="node">
<title>../common/stateManagerConstants.js</title>
<path fill="none" stroke="#cfffac" d="M646.711,-24.1482C646.711,-24.1482 415.079,-24.1482 415.079,-24.1482 411.0461,-24.1482 407.0132,-20.1152 407.0132,-16.0823 407.0132,-16.0823 407.0132,-8.0164 407.0132,-8.0164 407.0132,-3.9834 411.0461,.0495 415.079,.0495 415.079,.0495 646.711,.0495 646.711,.0495 650.7439,.0495 654.7769,-3.9834 654.7769,-8.0164 654.7769,-8.0164 654.7769,-16.0823 654.7769,-16.0823 654.7769,-20.1152 650.7439,-24.1482 646.711,-24.1482"/>
<text text-anchor="middle" x="530.895" y="-8.8986" font-family="Arial" font-size="14.00" fill="#cfffac">../common/stateManagerConstants.js</text>
</g>
<!-- Client.js -->
<g id="node5" class="node">
<title>Client.js</title>
<path fill="none" stroke="#c6c5fe" d="M174.2167,-87.1482C174.2167,-87.1482 124.7619,-87.1482 124.7619,-87.1482 120.7289,-87.1482 116.696,-83.1152 116.696,-79.0823 116.696,-79.0823 116.696,-71.0164 116.696,-71.0164 116.696,-66.9834 120.7289,-62.9505 124.7619,-62.9505 124.7619,-62.9505 174.2167,-62.9505 174.2167,-62.9505 178.2496,-62.9505 182.2826,-66.9834 182.2826,-71.0164 182.2826,-71.0164 182.2826,-79.0823 182.2826,-79.0823 182.2826,-83.1152 178.2496,-87.1482 174.2167,-87.1482"/>
<text text-anchor="middle" x="149.4893" y="-71.8986" font-family="Arial" font-size="14.00" fill="#c6c5fe">Client.js</text>
</g>
<!-- Service.js -->
<g id="node6" class="node">
<title>Service.js</title>
<path fill="none" stroke="#c6c5fe" d="M331.2097,-150.1482C331.2097,-150.1482 270.9749,-150.1482 270.9749,-150.1482 266.942,-150.1482 262.909,-146.1152 262.909,-142.0823 262.909,-142.0823 262.909,-134.0164 262.909,-134.0164 262.909,-129.9834 266.942,-125.9505 270.9749,-125.9505 270.9749,-125.9505 331.2097,-125.9505 331.2097,-125.9505 335.2426,-125.9505 339.2756,-129.9834 339.2756,-134.0164 339.2756,-134.0164 339.2756,-142.0823 339.2756,-142.0823 339.2756,-146.1152 335.2426,-150.1482 331.2097,-150.1482"/>
<text text-anchor="middle" x="301.0923" y="-134.8986" font-family="Arial" font-size="14.00" fill="#c6c5fe">Service.js</text>
</g>
<!-- Client.js&#45;&gt;Service.js -->
<g id="edge2" class="edge">
<title>Client.js&#45;&gt;Service.js</title>
<path fill="none" stroke="#757575" d="M172.0839,-87.1958C189.2013,-96.1222 213.4578,-108.189 235.5098,-117.0493 241.053,-119.2765 246.9309,-121.4344 252.8016,-123.4651"/>
<polygon fill="#757575" stroke="#757575" points="252.0207,-126.8946 262.6145,-126.7523 254.2442,-120.2571 252.0207,-126.8946"/>
</g>
<!-- ServiceManager.js -->
<g id="node7" class="node">
<title>ServiceManager.js</title>
<path fill="none" stroke="#c6c5fe" d="M358.6915,-108.1482C358.6915,-108.1482 243.493,-108.1482 243.493,-108.1482 239.4601,-108.1482 235.4271,-104.1152 235.4271,-100.0823 235.4271,-100.0823 235.4271,-92.0164 235.4271,-92.0164 235.4271,-87.9834 239.4601,-83.9505 243.493,-83.9505 243.493,-83.9505 358.6915,-83.9505 358.6915,-83.9505 362.7245,-83.9505 366.7574,-87.9834 366.7574,-92.0164 366.7574,-92.0164 366.7574,-100.0823 366.7574,-100.0823 366.7574,-104.1152 362.7245,-108.1482 358.6915,-108.1482"/>
<text text-anchor="middle" x="301.0923" y="-92.8986" font-family="Arial" font-size="14.00" fill="#c6c5fe">ServiceManager.js</text>
</g>
<!-- Client.js&#45;&gt;ServiceManager.js -->
<g id="edge3" class="edge">
<title>Client.js&#45;&gt;ServiceManager.js</title>
<path fill="none" stroke="#757575" d="M182.3849,-79.606C195.1007,-81.3674 210.2184,-83.4615 225.3338,-85.5553"/>
<polygon fill="#757575" stroke="#757575" points="224.8555,-89.0224 235.2412,-86.9276 225.816,-82.0886 224.8555,-89.0224"/>
</g>
<!-- Socket.js -->
<g id="node8" class="node">
<title>Socket.js</title>
<path fill="none" stroke="#c6c5fe" d="M329.3265,-66.1482C329.3265,-66.1482 272.8581,-66.1482 272.8581,-66.1482 268.8252,-66.1482 264.7922,-62.1152 264.7922,-58.0823 264.7922,-58.0823 264.7922,-50.0164 264.7922,-50.0164 264.7922,-45.9834 268.8252,-41.9505 272.8581,-41.9505 272.8581,-41.9505 329.3265,-41.9505 329.3265,-41.9505 333.3594,-41.9505 337.3924,-45.9834 337.3924,-50.0164 337.3924,-50.0164 337.3924,-58.0823 337.3924,-58.0823 337.3924,-62.1152 333.3594,-66.1482 329.3265,-66.1482"/>
<text text-anchor="middle" x="301.0923" y="-50.8986" font-family="Arial" font-size="14.00" fill="#c6c5fe">Socket.js</text>
</g>
<!-- Client.js&#45;&gt;Socket.js -->
<g id="edge4" class="edge">
<title>Client.js&#45;&gt;Socket.js</title>
<path fill="none" stroke="#757575" d="M182.3849,-70.4926C203.4738,-67.5714 231.1692,-63.735 254.504,-60.5027"/>
<polygon fill="#757575" stroke="#757575" points="255.1162,-63.9514 264.5414,-59.1123 254.1557,-57.0176 255.1162,-63.9514"/>
</g>
<!-- StateManager.js -->
<g id="node9" class="node">
<title>StateManager.js</title>
<path fill="none" stroke="#c6c5fe" d="M351.6984,-24.1482C351.6984,-24.1482 250.4862,-24.1482 250.4862,-24.1482 246.4532,-24.1482 242.4203,-20.1152 242.4203,-16.0823 242.4203,-16.0823 242.4203,-8.0164 242.4203,-8.0164 242.4203,-3.9834 246.4532,.0495 250.4862,.0495 250.4862,.0495 351.6984,.0495 351.6984,.0495 355.7313,.0495 359.7643,-3.9834 359.7643,-8.0164 359.7643,-8.0164 359.7643,-16.0823 359.7643,-16.0823 359.7643,-20.1152 355.7313,-24.1482 351.6984,-24.1482"/>
<text text-anchor="middle" x="301.0923" y="-8.8986" font-family="Arial" font-size="14.00" fill="#c6c5fe">StateManager.js</text>
</g>
<!-- Client.js&#45;&gt;StateManager.js -->
<g id="edge5" class="edge">
<title>Client.js&#45;&gt;StateManager.js</title>
<path fill="none" stroke="#757575" d="M180.1959,-62.9037C186.6466,-60.1452 193.3575,-57.1187 199.5098,-54.0493 216.0847,-45.7799 218.5887,-40.5852 235.5098,-33.0493 239.8544,-31.1144 244.4324,-29.2738 249.0663,-27.5448"/>
<polygon fill="#757575" stroke="#757575" points="250.3483,-30.8038 258.5999,-24.1583 248.0052,-24.2076 250.3483,-30.8038"/>
</g>
<!-- Service.js&#45;&gt;../common/Signal.js -->
<g id="edge6" class="edge">
<title>Service.js&#45;&gt;../common/Signal.js</title>
<path fill="none" stroke="#757575" d="M339.47,-146.4883C358.3942,-150.2295 381.6215,-154.1985 402.6748,-156.0493 516.2104,-166.0306 545.6956,-167.2718 659.1152,-156.0493 673.8564,-154.5907 689.5932,-152.0079 704.2801,-149.1413"/>
<polygon fill="#757575" stroke="#757575" points="705.1486,-152.5365 714.2551,-147.1217 703.7594,-145.6757 705.1486,-152.5365"/>
</g>
<!-- Service.js&#45;&gt;../common/SignalAll.js -->
<g id="edge7" class="edge">
<title>Service.js&#45;&gt;../common/SignalAll.js</title>
<path fill="none" stroke="#757575" d="M339.2975,-137.5506C367.7625,-137.179 407.7847,-136.6565 443.8941,-136.1851"/>
<polygon fill="#757575" stroke="#757575" points="444.0087,-139.684 453.9621,-136.0537 443.9173,-132.6846 444.0087,-139.684"/>
</g>
<!-- ServiceManager.js&#45;&gt;../common/Signal.js -->
<g id="edge8" class="edge">
<title>ServiceManager.js&#45;&gt;../common/Signal.js</title>
<path fill="none" stroke="#757575" d="M367.0022,-96.4664C439.0224,-97.5958 557.6754,-101.4325 659.1152,-114.0493 672.931,-115.7677 687.6489,-118.276 701.5608,-120.9655"/>
<polygon fill="#757575" stroke="#757575" points="701.0334,-124.4291 711.524,-122.9472 702.399,-117.5636 701.0334,-124.4291"/>
</g>
<!-- ServiceManager.js&#45;&gt;../common/SignalAll.js -->
<g id="edge9" class="edge">
<title>ServiceManager.js&#45;&gt;../common/SignalAll.js</title>
<path fill="none" stroke="#757575" d="M366.9445,-107.2252C392.8135,-111.6154 422.7659,-116.6986 449.9364,-121.3098"/>
<polygon fill="#757575" stroke="#757575" points="449.3634,-124.7625 459.808,-122.9851 450.5346,-117.8612 449.3634,-124.7625"/>
</g>
<!-- Socket.js&#45;&gt;../common/sockets&#45;encoder&#45;decoder.js -->
<g id="edge10" class="edge">
<title>Socket.js&#45;&gt;../common/sockets&#45;encoder&#45;decoder.js</title>
<path fill="none" stroke="#757575" d="M337.5052,-54.0493C353.0581,-54.0493 372.2862,-54.0493 392.5291,-54.0493"/>
<polygon fill="#757575" stroke="#757575" points="392.5365,-57.5494 402.5364,-54.0493 392.5364,-50.5494 392.5365,-57.5494"/>
</g>
<!-- StateManager.js&#45;&gt;../common/stateManagerConstants.js -->
<g id="edge11" class="edge">
<title>StateManager.js&#45;&gt;../common/stateManagerConstants.js</title>
<path fill="none" stroke="#757575" d="M359.9738,-12.0493C371.4114,-12.0493 383.8294,-12.0493 396.5759,-12.0493"/>
<polygon fill="#757575" stroke="#757575" points="396.8562,-15.5494 406.8562,-12.0493 396.8561,-8.5494 396.8562,-15.5494"/>
</g>
<!-- Experience.js -->
<g id="node10" class="node">
<title>Experience.js</title>
<path fill="none" stroke="#cfffac" d="M191.4644,-45.1482C191.4644,-45.1482 107.5141,-45.1482 107.5141,-45.1482 103.4812,-45.1482 99.4482,-41.1152 99.4482,-37.0823 99.4482,-37.0823 99.4482,-29.0164 99.4482,-29.0164 99.4482,-24.9834 103.4812,-20.9505 107.5141,-20.9505 107.5141,-20.9505 191.4644,-20.9505 191.4644,-20.9505 195.4973,-20.9505 199.5303,-24.9834 199.5303,-29.0164 199.5303,-29.0164 199.5303,-37.0823 199.5303,-37.0823 199.5303,-41.1152 195.4973,-45.1482 191.4644,-45.1482"/>
<text text-anchor="middle" x="149.4893" y="-29.8986" font-family="Arial" font-size="14.00" fill="#cfffac">Experience.js</text>
</g>
<!-- index.js -->
<g id="node11" class="node">
<title>index.js</title>
<path fill="none" stroke="#c6c5fe" d="M55.639,-66.1482C55.639,-66.1482 7.8298,-66.1482 7.8298,-66.1482 3.7968,-66.1482 -.2361,-62.1152 -.2361,-58.0823 -.2361,-58.0823 -.2361,-50.0164 -.2361,-50.0164 -.2361,-45.9834 3.7968,-41.9505 7.8298,-41.9505 7.8298,-41.9505 55.639,-41.9505 55.639,-41.9505 59.6719,-41.9505 63.7049,-45.9834 63.7049,-50.0164 63.7049,-50.0164 63.7049,-58.0823 63.7049,-58.0823 63.7049,-62.1152 59.6719,-66.1482 55.639,-66.1482"/>
<text text-anchor="middle" x="31.7344" y="-50.8986" font-family="Arial" font-size="14.00" fill="#c6c5fe">index.js</text>
</g>
<!-- index.js&#45;&gt;Client.js -->
<g id="edge12" class="edge">
<title>index.js&#45;&gt;Client.js</title>
<path fill="none" stroke="#757575" d="M63.6005,-59.7322C76.7548,-62.0781 92.2056,-64.8335 106.3489,-67.3558"/>
<polygon fill="#757575" stroke="#757575" points="105.9056,-70.8319 116.3648,-69.142 107.1346,-63.9406 105.9056,-70.8319"/>
</g>
<!-- index.js&#45;&gt;Experience.js -->
<g id="edge13" class="edge">
<title>index.js&#45;&gt;Experience.js</title>
<path fill="none" stroke="#757575" d="M63.6005,-48.3664C71.6176,-46.9367 80.4877,-45.3548 89.395,-43.7663"/>
<polygon fill="#757575" stroke="#757575" points="90.1937,-47.1792 99.4239,-41.9778 88.9647,-40.2879 90.1937,-47.1792"/>
</g>
</g>
</svg>
